<?xml version="1.0" encoding="utf-8"?>
<!-- Generator: Adobe Illustrator 17.0.0, SVG Export Plug-In . SVG Version: 6.00 Build 0)  -->
<!DOCTYPE svg PUBLIC "-//W3C//DTD SVG 1.1//EN" "http://www.w3.org/Graphics/SVG/1.1/DTD/svg11.dtd">
<svg version="1.1" id="Слой_1" xmlns="http://www.w3.org/2000/svg" xmlns:xlink="http://www.w3.org/1999/xlink" x="0px" y="0px"
	 width="314.667px" height="109.333px" viewBox="0 0 314.667 109.333" enable-background="new 0 0 314.667 109.333"
	 xml:space="preserve">
<g>
	
		<rect x="124.59" y="21.527" transform="matrix(0.7071 -0.7071 0.7071 0.7071 7.5426 127.5429)" fill="#FFFFFF" stroke="#000000" stroke-width="4" stroke-miterlimit="10" width="66.279" height="66.279"/>
	<line fill="none" stroke="#000000" stroke-width="4" stroke-miterlimit="10" x1="199.662" y1="12.734" x2="162.662" y2="49.733"/>
	<line fill="none" stroke="#000000" stroke-width="4" stroke-miterlimit="10" x1="152.796" y1="59.6" x2="115.796" y2="96.6"/>
	<line fill="none" stroke="#000000" stroke-width="4" stroke-miterlimit="10" x1="162.662" y1="59.6" x2="199.662" y2="96.6"/>
	<line fill="none" stroke="#000000" stroke-width="4" stroke-miterlimit="10" x1="115.796" y1="12.734" x2="152.796" y2="49.733"/>
	
		<rect x="229.989" y="21.527" transform="matrix(0.7071 -0.7071 0.7071 0.7071 38.4134 202.0714)" fill="#FFFFFF" stroke="#000000" stroke-width="4" stroke-miterlimit="10" width="66.279" height="66.279"/>
	<line fill="none" stroke="#000000" stroke-width="4" stroke-miterlimit="10" x1="305.061" y1="12.734" x2="268.062" y2="49.733"/>
	<line fill="none" stroke="#000000" stroke-width="4" stroke-miterlimit="10" x1="258.195" y1="59.6" x2="221.195" y2="96.6"/>
	<line fill="none" stroke="#000000" stroke-width="4" stroke-miterlimit="10" x1="268.062" y1="59.6" x2="305.061" y2="96.6"/>
	<line fill="none" stroke="#000000" stroke-width="4" stroke-miterlimit="10" x1="221.195" y1="12.734" x2="258.195" y2="49.733"/>
	
		<rect x="18.399" y="21.527" transform="matrix(0.7071 -0.7071 0.7071 0.7071 -23.56 52.4545)" fill="#FFFFFF" stroke="#000000" stroke-width="4" stroke-miterlimit="10" width="66.279" height="66.279"/>
	<line fill="none" stroke="#000000" stroke-width="4" stroke-miterlimit="10" x1="93.471" y1="12.734" x2="56.472" y2="49.733"/>
	<line fill="none" stroke="#000000" stroke-width="4" stroke-miterlimit="10" x1="46.605" y1="59.6" x2="9.605" y2="96.6"/>
	<line fill="none" stroke="#000000" stroke-width="4" stroke-miterlimit="10" x1="56.472" y1="59.6" x2="93.471" y2="96.6"/>
	<line fill="none" stroke="#000000" stroke-width="4" stroke-miterlimit="10" x1="9.605" y1="12.734" x2="46.605" y2="49.733"/>
</g>
</svg>
